<?xml version="1.0" standalone="no"?>
<!DOCTYPE svg PUBLIC "-//W3C//DTD SVG 20010904//EN"
 "http://www.w3.org/TR/2001/REC-SVG-20010904/DTD/svg10.dtd">
<svg version="1.0" xmlns="http://www.w3.org/2000/svg"
 width="433.000000pt" height="433.000000pt" viewBox="0 0 433.000000 433.000000"
 preserveAspectRatio="xMidYMid meet">
<metadata>
Created by potrace 1.11, written by Peter Selinger 2001-2013
</metadata>
<g transform="translate(0.000000,433.000000) scale(0.100000,-0.100000)"
fill="#000000" stroke="none">
<path d="M1896 4308 c-2 -7 -13 -40 -24 -73 -11 -33 -35 -106 -52 -163 -17
-57 -46 -138 -64 -180 -42 -98 -77 -228 -76 -284 0 -24 0 -59 0 -78 0 -19 -7
-49 -16 -68 -25 -53 -9 -157 32 -203 20 -22 18 -25 -18 -43 -39 -20 -38 -20
-38 8 0 32 -16 42 -29 19 -6 -13 -4 -34 10 -72 18 -53 18 -54 -2 -83 -24 -33
-55 -48 -100 -48 -26 0 -34 -8 -26 -26 1 -3 -10 -12 -25 -20 -32 -17 -38 -62
-13 -88 18 -18 19 -26 3 -26 -7 0 -19 -4 -25 -8 -18 -11 5 -94 68 -245 42
-101 52 -135 55 -197 5 -84 5 -75 -3 -155 -4 -42 -12 -68 -29 -88 -30 -36 -46
-94 -48 -182 -1 -77 3 -104 32 -185 64 -177 92 -281 83 -299 -20 -36 -59 -35
-91 3 -8 11 -29 16 -61 16 -85 0 -149 39 -149 92 0 18 -5 28 -15 28 -18 0 -41
43 -49 93 -6 40 -21 75 -40 92 -23 20 -72 51 -107 68 -53 24 -57 47 -63 337
-3 113 -7 212 -10 220 -3 8 -8 33 -11 55 -3 22 -14 47 -25 57 -11 9 -19 22
-18 29 2 7 -10 19 -27 27 -16 8 -32 19 -35 23 -3 5 -5 69 -5 143 l1 135 -26
-6 c-51 -12 -81 -34 -86 -63 -4 -16 -12 -31 -20 -34 -8 -3 -14 -17 -14 -32 0
-14 -9 -60 -19 -102 -11 -43 -23 -101 -26 -131 -4 -29 -13 -71 -21 -93 -16
-46 -18 -96 -5 -117 7 -10 1 -31 -16 -65 -22 -43 -24 -57 -18 -100 9 -56 10
-114 4 -191 -2 -27 2 -75 10 -106 18 -74 9 -114 -39 -180 -74 -98 -80 -170
-26 -277 32 -62 109 -167 163 -221 24 -24 42 -46 38 -49 -12 -12 49 -62 76
-62 32 0 45 -15 30 -33 -7 -9 -4 -32 10 -78 23 -73 27 -79 58 -82 17 -1 21 -6
17 -22 -11 -45 94 -144 225 -210 44 -23 73 -45 86 -67 11 -18 49 -55 86 -83
57 -44 65 -53 60 -75 -6 -25 -6 -25 15 -6 20 17 22 17 28 2 6 -15 -18 -96 -36
-121 -19 -27 -18 -46 3 -66 12 -11 22 -28 22 -37 0 -9 10 -21 22 -27 16 -7 21
-15 17 -27 -4 -12 0 -18 12 -18 9 0 41 -14 70 -31 30 -17 58 -28 64 -24 5 3
15 -6 20 -21 8 -21 15 -25 33 -19 59 19 72 17 117 -18 64 -48 96 -52 133 -16
19 19 39 29 59 29 17 0 48 5 69 12 46 13 80 0 97 -38 10 -20 19 -23 79 -26 87
-4 111 7 133 57 20 46 92 136 167 207 28 27 54 60 57 73 4 16 16 27 31 30 14
3 35 7 48 10 35 7 64 37 85 86 11 25 33 58 48 75 16 16 47 73 68 126 38 95 39
99 21 118 -10 11 -21 17 -26 15 -4 -3 -11 0 -15 6 -4 7 3 21 18 33 14 12 37
46 51 76 14 30 64 107 111 170 102 137 114 168 96 244 l-13 53 39 39 c27 27
72 105 146 254 71 144 121 230 148 260 23 25 78 98 123 163 44 65 93 125 109
135 15 9 27 23 25 32 -1 8 4 14 11 12 8 -1 12 5 10 15 -1 10 5 29 15 43 10 15
17 43 17 72 0 38 -4 48 -20 53 -36 11 -80 56 -80 80 0 13 18 44 40 70 22 25
40 56 41 68 0 32 9 246 11 287 5 97 -22 241 -56 308 -16 32 -52 62 -72 62 -6
0 -33 -48 -59 -107 -38 -84 -50 -124 -54 -180 -7 -73 -11 -85 -35 -89 -40 -6
-59 -19 -72 -49 -11 -28 -18 -33 -38 -29 -21 3 -23 1 -20 -24 2 -15 6 -40 10
-55 8 -36 -15 -62 -58 -65 -43 -3 -41 0 -47 -80 -1 -11 -16 -12 -68 -7 -38 4
-72 8 -76 9 -5 0 -18 -12 -30 -27 -19 -25 -22 -42 -23 -151 -2 -129 -11 -162
-52 -200 -26 -22 -39 -15 -51 29 -6 24 -5 47 4 79 7 24 11 47 8 49 -3 3 -5 30
-5 59 -1 41 5 65 26 100 14 25 24 52 20 61 -4 11 6 23 30 39 36 23 53 54 54
97 1 13 10 30 21 38 20 14 20 14 1 46 -25 41 -25 43 6 72 l26 24 -59 63 c-121
128 -112 111 -98 183 6 35 16 70 22 77 6 7 14 33 18 58 4 25 14 57 22 73 7 15
16 55 19 90 5 61 4 63 -27 86 l-32 24 8 71 c16 153 14 185 -11 264 -29 90 -36
182 -18 235 11 30 11 37 0 37 -14 0 -39 -25 -50 -50 -3 -8 -17 -33 -31 -55
-14 -22 -28 -47 -32 -55 -10 -22 -172 -267 -216 -328 -32 -42 -39 -62 -42
-105 -1 -28 -12 -83 -24 -121 -11 -37 -21 -82 -21 -100 0 -17 -7 -49 -15 -72
-7 -23 -12 -55 -10 -71 3 -27 -4 -36 -84 -96 -48 -37 -100 -85 -116 -107 l-28
-40 17 -58 c9 -32 16 -77 16 -101 0 -54 -19 -178 -33 -211 -5 -14 -11 -53 -12
-87 -3 -74 -42 -167 -73 -175 -29 -8 -36 19 -18 64 8 19 17 79 21 134 3 54 7
113 9 129 7 48 18 237 17 275 -3 74 -12 95 -70 150 l-57 55 2 125 c1 69 5 171
9 227 l7 101 -40 67 c-41 67 -48 93 -57 198 -5 59 -18 94 -42 112 -9 7 -16 33
-18 67 -2 50 -28 115 -55 138 -3 3 -18 20 -33 38 -17 22 -28 29 -31 20z"/>
</g>
</svg>
